<mxfile host="Electron" modified="2023-09-30T15:14:09.302Z" agent="Mozilla/5.0 (Windows NT 10.0; Win64; x64) AppleWebKit/537.36 (KHTML, like Gecko) draw.io/22.0.0 Chrome/114.0.5735.289 Electron/25.8.3 Safari/537.36" etag="Bw4WPzHpWyDkp21KyUkI" version="22.0.0" type="device">
  <diagram id="C5RBs43oDa-KdzZeNtuy" name="Page-1">
    <mxGraphModel dx="864" dy="508" grid="1" gridSize="10" guides="1" tooltips="1" connect="1" arrows="1" fold="1" page="1" pageScale="1" pageWidth="827" pageHeight="1169" math="0" shadow="0">
      <root>
        <mxCell id="WIyWlLk6GJQsqaUBKTNV-0" />
        <mxCell id="WIyWlLk6GJQsqaUBKTNV-1" parent="WIyWlLk6GJQsqaUBKTNV-0" />
        <mxCell id="m4JFgyuzOyQNul8HCnf2-2" value="" style="edgeStyle=orthogonalEdgeStyle;rounded=0;orthogonalLoop=1;jettySize=auto;html=1;fontSize=16;" parent="WIyWlLk6GJQsqaUBKTNV-1" source="m4JFgyuzOyQNul8HCnf2-0" target="m4JFgyuzOyQNul8HCnf2-1" edge="1">
          <mxGeometry relative="1" as="geometry" />
        </mxCell>
        <mxCell id="m4JFgyuzOyQNul8HCnf2-0" value="" style="ellipse;whiteSpace=wrap;html=1;aspect=fixed;fontSize=16;" parent="WIyWlLk6GJQsqaUBKTNV-1" vertex="1">
          <mxGeometry x="180" y="40" width="40" height="40" as="geometry" />
        </mxCell>
        <mxCell id="m4JFgyuzOyQNul8HCnf2-4" value="" style="edgeStyle=orthogonalEdgeStyle;rounded=0;orthogonalLoop=1;jettySize=auto;html=1;fontSize=16;" parent="WIyWlLk6GJQsqaUBKTNV-1" source="m4JFgyuzOyQNul8HCnf2-1" target="m4JFgyuzOyQNul8HCnf2-3" edge="1">
          <mxGeometry relative="1" as="geometry" />
        </mxCell>
        <mxCell id="m4JFgyuzOyQNul8HCnf2-1" value="Nhập t, n" style="shape=parallelogram;perimeter=parallelogramPerimeter;whiteSpace=wrap;html=1;fixedSize=1;fontSize=16;" parent="WIyWlLk6GJQsqaUBKTNV-1" vertex="1">
          <mxGeometry x="130" y="120" width="140" height="40" as="geometry" />
        </mxCell>
        <mxCell id="m4JFgyuzOyQNul8HCnf2-6" value="" style="edgeStyle=orthogonalEdgeStyle;rounded=0;orthogonalLoop=1;jettySize=auto;html=1;fontSize=16;" parent="WIyWlLk6GJQsqaUBKTNV-1" source="m4JFgyuzOyQNul8HCnf2-3" target="m4JFgyuzOyQNul8HCnf2-5" edge="1">
          <mxGeometry relative="1" as="geometry" />
        </mxCell>
        <mxCell id="m4JFgyuzOyQNul8HCnf2-9" value="" style="edgeStyle=orthogonalEdgeStyle;rounded=0;orthogonalLoop=1;jettySize=auto;html=1;" parent="WIyWlLk6GJQsqaUBKTNV-1" source="m4JFgyuzOyQNul8HCnf2-3" target="m4JFgyuzOyQNul8HCnf2-8" edge="1">
          <mxGeometry relative="1" as="geometry" />
        </mxCell>
        <mxCell id="m4JFgyuzOyQNul8HCnf2-3" value="n % 4 != 0" style="rhombus;whiteSpace=wrap;html=1;fontSize=16;" parent="WIyWlLk6GJQsqaUBKTNV-1" vertex="1">
          <mxGeometry x="120" y="200" width="160" height="60" as="geometry" />
        </mxCell>
        <mxCell id="m4JFgyuzOyQNul8HCnf2-5" value="b = false" style="whiteSpace=wrap;html=1;fontSize=16;" parent="WIyWlLk6GJQsqaUBKTNV-1" vertex="1">
          <mxGeometry x="360" y="210" width="120" height="40" as="geometry" />
        </mxCell>
        <mxCell id="m4JFgyuzOyQNul8HCnf2-7" value="&lt;span style=&quot;font-size: 16px;&quot;&gt;đúng&lt;/span&gt;" style="text;html=1;align=center;verticalAlign=middle;resizable=0;points=[];autosize=1;strokeColor=none;fillColor=none;fontSize=16;" parent="WIyWlLk6GJQsqaUBKTNV-1" vertex="1">
          <mxGeometry x="290" y="200" width="60" height="30" as="geometry" />
        </mxCell>
        <mxCell id="m4JFgyuzOyQNul8HCnf2-12" value="" style="edgeStyle=orthogonalEdgeStyle;rounded=0;orthogonalLoop=1;jettySize=auto;html=1;entryX=0;entryY=0.5;entryDx=0;entryDy=0;" parent="WIyWlLk6GJQsqaUBKTNV-1" source="m4JFgyuzOyQNul8HCnf2-8" target="m4JFgyuzOyQNul8HCnf2-14" edge="1">
          <mxGeometry relative="1" as="geometry">
            <mxPoint x="400" y="340" as="targetPoint" />
          </mxGeometry>
        </mxCell>
        <mxCell id="m4JFgyuzOyQNul8HCnf2-17" value="" style="edgeStyle=orthogonalEdgeStyle;rounded=0;orthogonalLoop=1;jettySize=auto;html=1;" parent="WIyWlLk6GJQsqaUBKTNV-1" source="m4JFgyuzOyQNul8HCnf2-8" target="m4JFgyuzOyQNul8HCnf2-16" edge="1">
          <mxGeometry relative="1" as="geometry" />
        </mxCell>
        <mxCell id="m4JFgyuzOyQNul8HCnf2-8" value="n % 100 == 0 và n % 400 != 0&amp;nbsp;" style="rhombus;whiteSpace=wrap;html=1;fontSize=16;" parent="WIyWlLk6GJQsqaUBKTNV-1" vertex="1">
          <mxGeometry x="70" y="300" width="260" height="80" as="geometry" />
        </mxCell>
        <mxCell id="m4JFgyuzOyQNul8HCnf2-10" value="sai" style="text;html=1;align=center;verticalAlign=middle;resizable=0;points=[];autosize=1;strokeColor=none;fillColor=none;fontSize=16;" parent="WIyWlLk6GJQsqaUBKTNV-1" vertex="1">
          <mxGeometry x="160" y="260" width="40" height="30" as="geometry" />
        </mxCell>
        <mxCell id="m4JFgyuzOyQNul8HCnf2-13" value="&lt;span style=&quot;font-size: 16px;&quot;&gt;đúng&lt;/span&gt;" style="text;html=1;align=center;verticalAlign=middle;resizable=0;points=[];autosize=1;strokeColor=none;fillColor=none;fontSize=16;" parent="WIyWlLk6GJQsqaUBKTNV-1" vertex="1">
          <mxGeometry x="340" y="310" width="60" height="30" as="geometry" />
        </mxCell>
        <mxCell id="m4JFgyuzOyQNul8HCnf2-21" style="edgeStyle=orthogonalEdgeStyle;rounded=0;orthogonalLoop=1;jettySize=auto;html=1;exitX=1;exitY=0.5;exitDx=0;exitDy=0;" parent="WIyWlLk6GJQsqaUBKTNV-1" source="m4JFgyuzOyQNul8HCnf2-14" edge="1">
          <mxGeometry relative="1" as="geometry">
            <mxPoint x="200" y="480" as="targetPoint" />
            <Array as="points">
              <mxPoint x="560" y="340" />
              <mxPoint x="560" y="480" />
            </Array>
          </mxGeometry>
        </mxCell>
        <mxCell id="m4JFgyuzOyQNul8HCnf2-14" value="b = false" style="whiteSpace=wrap;html=1;fontSize=16;" parent="WIyWlLk6GJQsqaUBKTNV-1" vertex="1">
          <mxGeometry x="400" y="320" width="120" height="40" as="geometry" />
        </mxCell>
        <mxCell id="m4JFgyuzOyQNul8HCnf2-15" style="edgeStyle=orthogonalEdgeStyle;rounded=0;orthogonalLoop=1;jettySize=auto;html=1;exitX=1;exitY=0.5;exitDx=0;exitDy=0;" parent="WIyWlLk6GJQsqaUBKTNV-1" source="m4JFgyuzOyQNul8HCnf2-5" edge="1">
          <mxGeometry relative="1" as="geometry">
            <mxPoint x="200" y="480" as="targetPoint" />
            <Array as="points">
              <mxPoint x="560" y="230" />
              <mxPoint x="560" y="480" />
              <mxPoint x="201" y="480" />
            </Array>
          </mxGeometry>
        </mxCell>
        <mxCell id="m4JFgyuzOyQNul8HCnf2-20" value="" style="edgeStyle=orthogonalEdgeStyle;rounded=0;orthogonalLoop=1;jettySize=auto;html=1;" parent="WIyWlLk6GJQsqaUBKTNV-1" source="m4JFgyuzOyQNul8HCnf2-16" target="m4JFgyuzOyQNul8HCnf2-19" edge="1">
          <mxGeometry relative="1" as="geometry" />
        </mxCell>
        <mxCell id="m4JFgyuzOyQNul8HCnf2-16" value="b = true" style="whiteSpace=wrap;html=1;fontSize=16;" parent="WIyWlLk6GJQsqaUBKTNV-1" vertex="1">
          <mxGeometry x="140" y="420" width="120" height="40" as="geometry" />
        </mxCell>
        <mxCell id="m4JFgyuzOyQNul8HCnf2-18" value="sai" style="text;html=1;align=center;verticalAlign=middle;resizable=0;points=[];autosize=1;strokeColor=none;fillColor=none;fontSize=16;" parent="WIyWlLk6GJQsqaUBKTNV-1" vertex="1">
          <mxGeometry x="160" y="380" width="40" height="30" as="geometry" />
        </mxCell>
        <mxCell id="m4JFgyuzOyQNul8HCnf2-24" value="" style="edgeStyle=orthogonalEdgeStyle;rounded=0;orthogonalLoop=1;jettySize=auto;html=1;" parent="WIyWlLk6GJQsqaUBKTNV-1" source="m4JFgyuzOyQNul8HCnf2-19" target="m4JFgyuzOyQNul8HCnf2-23" edge="1">
          <mxGeometry relative="1" as="geometry" />
        </mxCell>
        <mxCell id="m4JFgyuzOyQNul8HCnf2-27" value="" style="edgeStyle=orthogonalEdgeStyle;rounded=0;orthogonalLoop=1;jettySize=auto;html=1;" parent="WIyWlLk6GJQsqaUBKTNV-1" source="m4JFgyuzOyQNul8HCnf2-19" target="m4JFgyuzOyQNul8HCnf2-26" edge="1">
          <mxGeometry relative="1" as="geometry" />
        </mxCell>
        <mxCell id="m4JFgyuzOyQNul8HCnf2-19" value="t == 1 hoặc t == 3 hoặc t == 5&lt;br&gt;hoặc t == 7 hoặc t == 8 hoặc t == 10&lt;br&gt;hoặc t&amp;nbsp; == 12" style="rhombus;whiteSpace=wrap;html=1;fontSize=16;" parent="WIyWlLk6GJQsqaUBKTNV-1" vertex="1">
          <mxGeometry x="40" y="500" width="320" height="120" as="geometry" />
        </mxCell>
        <mxCell id="m4JFgyuzOyQNul8HCnf2-23" value="d = 31" style="whiteSpace=wrap;html=1;fontSize=16;" parent="WIyWlLk6GJQsqaUBKTNV-1" vertex="1">
          <mxGeometry x="440" y="540" width="120" height="40" as="geometry" />
        </mxCell>
        <mxCell id="m4JFgyuzOyQNul8HCnf2-25" value="&lt;span style=&quot;font-size: 16px;&quot;&gt;đúng&lt;/span&gt;" style="text;html=1;align=center;verticalAlign=middle;resizable=0;points=[];autosize=1;strokeColor=none;fillColor=none;fontSize=16;" parent="WIyWlLk6GJQsqaUBKTNV-1" vertex="1">
          <mxGeometry x="370" y="530" width="60" height="30" as="geometry" />
        </mxCell>
        <mxCell id="m4JFgyuzOyQNul8HCnf2-32" value="" style="edgeStyle=orthogonalEdgeStyle;rounded=0;orthogonalLoop=1;jettySize=auto;html=1;" parent="WIyWlLk6GJQsqaUBKTNV-1" source="m4JFgyuzOyQNul8HCnf2-26" target="m4JFgyuzOyQNul8HCnf2-31" edge="1">
          <mxGeometry relative="1" as="geometry" />
        </mxCell>
        <mxCell id="m4JFgyuzOyQNul8HCnf2-36" value="" style="edgeStyle=orthogonalEdgeStyle;rounded=0;orthogonalLoop=1;jettySize=auto;html=1;" parent="WIyWlLk6GJQsqaUBKTNV-1" source="m4JFgyuzOyQNul8HCnf2-26" target="m4JFgyuzOyQNul8HCnf2-35" edge="1">
          <mxGeometry relative="1" as="geometry" />
        </mxCell>
        <mxCell id="m4JFgyuzOyQNul8HCnf2-26" value="t == 4 hoặc t == 6 hoặc t == 9&lt;br&gt;hoặc t == 11" style="rhombus;whiteSpace=wrap;html=1;fontSize=16;" parent="WIyWlLk6GJQsqaUBKTNV-1" vertex="1">
          <mxGeometry x="40" y="660" width="320" height="90" as="geometry" />
        </mxCell>
        <mxCell id="m4JFgyuzOyQNul8HCnf2-28" value="sai" style="text;html=1;align=center;verticalAlign=middle;resizable=0;points=[];autosize=1;strokeColor=none;fillColor=none;fontSize=16;" parent="WIyWlLk6GJQsqaUBKTNV-1" vertex="1">
          <mxGeometry x="160" y="620" width="40" height="30" as="geometry" />
        </mxCell>
        <mxCell id="m4JFgyuzOyQNul8HCnf2-31" value="d = 30" style="whiteSpace=wrap;html=1;fontSize=16;" parent="WIyWlLk6GJQsqaUBKTNV-1" vertex="1">
          <mxGeometry x="440" y="685" width="120" height="40" as="geometry" />
        </mxCell>
        <mxCell id="m4JFgyuzOyQNul8HCnf2-33" value="&lt;span style=&quot;font-size: 16px;&quot;&gt;đúng&lt;/span&gt;" style="text;html=1;align=center;verticalAlign=middle;resizable=0;points=[];autosize=1;strokeColor=none;fillColor=none;fontSize=16;" parent="WIyWlLk6GJQsqaUBKTNV-1" vertex="1">
          <mxGeometry x="370" y="675" width="60" height="30" as="geometry" />
        </mxCell>
        <mxCell id="m4JFgyuzOyQNul8HCnf2-39" value="" style="edgeStyle=orthogonalEdgeStyle;rounded=0;orthogonalLoop=1;jettySize=auto;html=1;" parent="WIyWlLk6GJQsqaUBKTNV-1" source="m4JFgyuzOyQNul8HCnf2-35" target="m4JFgyuzOyQNul8HCnf2-38" edge="1">
          <mxGeometry relative="1" as="geometry" />
        </mxCell>
        <mxCell id="m4JFgyuzOyQNul8HCnf2-44" value="" style="edgeStyle=orthogonalEdgeStyle;rounded=0;orthogonalLoop=1;jettySize=auto;html=1;" parent="WIyWlLk6GJQsqaUBKTNV-1" source="m4JFgyuzOyQNul8HCnf2-35" target="m4JFgyuzOyQNul8HCnf2-43" edge="1">
          <mxGeometry relative="1" as="geometry" />
        </mxCell>
        <mxCell id="m4JFgyuzOyQNul8HCnf2-35" value="b == true" style="rhombus;whiteSpace=wrap;html=1;fontSize=16;" parent="WIyWlLk6GJQsqaUBKTNV-1" vertex="1">
          <mxGeometry x="90" y="800" width="220" height="60" as="geometry" />
        </mxCell>
        <mxCell id="m4JFgyuzOyQNul8HCnf2-37" value="sai" style="text;html=1;align=center;verticalAlign=middle;resizable=0;points=[];autosize=1;strokeColor=none;fillColor=none;fontSize=16;" parent="WIyWlLk6GJQsqaUBKTNV-1" vertex="1">
          <mxGeometry x="160" y="760" width="40" height="30" as="geometry" />
        </mxCell>
        <mxCell id="m4JFgyuzOyQNul8HCnf2-38" value="d = 29" style="whiteSpace=wrap;html=1;fontSize=16;" parent="WIyWlLk6GJQsqaUBKTNV-1" vertex="1">
          <mxGeometry x="440" y="810" width="120" height="40" as="geometry" />
        </mxCell>
        <mxCell id="m4JFgyuzOyQNul8HCnf2-40" value="&lt;span style=&quot;font-size: 16px;&quot;&gt;đúng&lt;/span&gt;" style="text;html=1;align=center;verticalAlign=middle;resizable=0;points=[];autosize=1;strokeColor=none;fillColor=none;fontSize=16;" parent="WIyWlLk6GJQsqaUBKTNV-1" vertex="1">
          <mxGeometry x="350" y="800" width="60" height="30" as="geometry" />
        </mxCell>
        <mxCell id="m4JFgyuzOyQNul8HCnf2-41" style="edgeStyle=orthogonalEdgeStyle;rounded=0;orthogonalLoop=1;jettySize=auto;html=1;exitX=0.5;exitY=1;exitDx=0;exitDy=0;" parent="WIyWlLk6GJQsqaUBKTNV-1" source="m4JFgyuzOyQNul8HCnf2-31" target="m4JFgyuzOyQNul8HCnf2-31" edge="1">
          <mxGeometry relative="1" as="geometry" />
        </mxCell>
        <mxCell id="WCd3F602R2rr3WEGdW-B-5" style="edgeStyle=orthogonalEdgeStyle;rounded=0;orthogonalLoop=1;jettySize=auto;html=1;exitX=0.5;exitY=1;exitDx=0;exitDy=0;" edge="1" parent="WIyWlLk6GJQsqaUBKTNV-1" source="m4JFgyuzOyQNul8HCnf2-43" target="m4JFgyuzOyQNul8HCnf2-47">
          <mxGeometry relative="1" as="geometry" />
        </mxCell>
        <mxCell id="m4JFgyuzOyQNul8HCnf2-43" value="d = 28" style="whiteSpace=wrap;html=1;fontSize=16;" parent="WIyWlLk6GJQsqaUBKTNV-1" vertex="1">
          <mxGeometry x="140" y="900" width="120" height="40" as="geometry" />
        </mxCell>
        <mxCell id="m4JFgyuzOyQNul8HCnf2-45" value="sai" style="text;html=1;align=center;verticalAlign=middle;resizable=0;points=[];autosize=1;strokeColor=none;fillColor=none;fontSize=16;" parent="WIyWlLk6GJQsqaUBKTNV-1" vertex="1">
          <mxGeometry x="160" y="860" width="40" height="30" as="geometry" />
        </mxCell>
        <mxCell id="m4JFgyuzOyQNul8HCnf2-52" value="" style="edgeStyle=orthogonalEdgeStyle;rounded=0;orthogonalLoop=1;jettySize=auto;html=1;" parent="WIyWlLk6GJQsqaUBKTNV-1" source="m4JFgyuzOyQNul8HCnf2-47" target="m4JFgyuzOyQNul8HCnf2-51" edge="1">
          <mxGeometry relative="1" as="geometry" />
        </mxCell>
        <mxCell id="m4JFgyuzOyQNul8HCnf2-47" value="Xuất d" style="shape=card;whiteSpace=wrap;html=1;flipV=1;direction=south;size=20;fontSize=16;" parent="WIyWlLk6GJQsqaUBKTNV-1" vertex="1">
          <mxGeometry x="140" y="980" width="120" height="40" as="geometry" />
        </mxCell>
        <mxCell id="m4JFgyuzOyQNul8HCnf2-51" value="" style="ellipse;whiteSpace=wrap;html=1;fontSize=16;" parent="WIyWlLk6GJQsqaUBKTNV-1" vertex="1">
          <mxGeometry x="180" y="1060" width="40" height="40" as="geometry" />
        </mxCell>
        <mxCell id="m4JFgyuzOyQNul8HCnf2-53" value="" style="ellipse;whiteSpace=wrap;html=1;aspect=fixed;" parent="WIyWlLk6GJQsqaUBKTNV-1" vertex="1">
          <mxGeometry x="190" y="1070" width="20" height="20" as="geometry" />
        </mxCell>
        <mxCell id="WCd3F602R2rr3WEGdW-B-0" style="edgeStyle=orthogonalEdgeStyle;rounded=0;orthogonalLoop=1;jettySize=auto;html=1;exitX=1;exitY=0.5;exitDx=0;exitDy=0;entryX=0;entryY=0;entryDx=20;entryDy=0;entryPerimeter=0;" edge="1" parent="WIyWlLk6GJQsqaUBKTNV-1" source="m4JFgyuzOyQNul8HCnf2-23" target="m4JFgyuzOyQNul8HCnf2-47">
          <mxGeometry relative="1" as="geometry" />
        </mxCell>
        <mxCell id="WCd3F602R2rr3WEGdW-B-2" style="edgeStyle=orthogonalEdgeStyle;rounded=0;orthogonalLoop=1;jettySize=auto;html=1;exitX=1;exitY=0.5;exitDx=0;exitDy=0;entryX=0;entryY=0;entryDx=20;entryDy=0;entryPerimeter=0;" edge="1" parent="WIyWlLk6GJQsqaUBKTNV-1" source="m4JFgyuzOyQNul8HCnf2-38" target="m4JFgyuzOyQNul8HCnf2-47">
          <mxGeometry relative="1" as="geometry" />
        </mxCell>
        <mxCell id="WCd3F602R2rr3WEGdW-B-4" style="edgeStyle=orthogonalEdgeStyle;rounded=0;orthogonalLoop=1;jettySize=auto;html=1;exitX=1;exitY=0.5;exitDx=0;exitDy=0;entryX=0;entryY=0;entryDx=20;entryDy=0;entryPerimeter=0;" edge="1" parent="WIyWlLk6GJQsqaUBKTNV-1" source="m4JFgyuzOyQNul8HCnf2-31" target="m4JFgyuzOyQNul8HCnf2-47">
          <mxGeometry relative="1" as="geometry" />
        </mxCell>
      </root>
    </mxGraphModel>
  </diagram>
</mxfile>
